# xmcd
#
# Track frame offsets:
#	150
#	14950
#	28837
#	39937
#	53777
#	66017
#	82350
#	97010
#	113632
#	126430
#
# Disc length: 1840 seconds
#
# Revision: 0
# Processed by: cddbd v1.4PL0 Copyright (c) Steve Scherf et al.
# Submitted via: MusicWizard 6.0.2
#
DISCID=8e072e0a
DTITLE=Ethel And The Shameless Hussies - Born To Burn
DYEAR=1988
DGENRE=Country
TTITLE0=Takin' My Pain To The Bank
TTITLE1=One Nite Stan
TTITLE2=Last Night I Really Laid Down The Law  (with Waylon Jennings)
TTITLE3=It's Just The Whiskey Talkin'
TTITLE4=I'm The One Mama Warned You About
TTITLE5=Born To Burn
TTITLE6=Smokin' In Bed
TTITLE7=A Woman's Drinkin' Song
TTITLE8=I Thought He Was Mr. Right, But He Left
TTITLE9=Mr. Cadillac
EXTD=(c)1989 MCA\nupc 07674-22191\nProduced by Jimmy Bowen
EXTT0=
EXTT1=
EXTT2=
EXTT3=
EXTT4=
EXTT5=
EXTT6=
EXTT7=
EXTT8=
EXTT9=
PLAYORDER=
